<svg width="40" height="40" viewBox="0 0 40 40" fill="none" xmlns="http://www.w3.org/2000/svg">
<path d="M22.2999 40L22.2999 25.5556L32.5149 35.7706L35.7706 32.5149L25.5556 22.2999L40 22.2999L40 17.7001L25.5556 17.7001L35.7706 7.48507L32.5149 4.22939L22.2999 14.4444L22.2999 -7.73697e-07L17.7001 -9.74759e-07L17.7001 14.4444L7.48507 4.22939L4.22939 7.48506L14.4444 17.7001L-7.73697e-07 17.7001L-9.74759e-07 22.2999L14.4444 22.2999L4.22939 32.5149L7.48506 35.7706L17.7001 25.5556L17.7001 40L22.2999 40ZM15.6213 20C15.6213 17.5806 17.5806 15.6213 20 15.6213C22.4194 15.6213 24.3787 17.5806 24.3787 20C24.3787 22.4194 22.4194 24.3787 20 24.3787C17.5806 24.3787 15.6213 22.4194 15.6213 20Z" fill="#272727"/>
</svg>
