<?xml version="1.0" encoding="UTF-8"?>
<svg id="_레이어_2" data-name="레이어_2" xmlns="http://www.w3.org/2000/svg" viewBox="0 0 80.04 27">
  <defs>
    <style>
      .cls-1 {
        fill: #272727;
      }
    </style>
  </defs>
  <g id="_레이어_1-2" data-name="레이어_1">
    <g>
      <path class="cls-1" d="M9.38.09c-.31,0-.48-.05-.7-.08C6.67,5.06,2.51,14.2,0,19.64c.37-.05.7-.17,1.24-.17s.82.11,1.15.17c.93-3.56,2.06-6.06,2.62-7.35h7.13c.7,1.55,1.86,3.98,2.85,7.35.54-.08,1.07-.17,1.8-.17s1.18.08,1.66.17c-.06-.11-6.28-13.75-8.45-19.64-.23.06-.37.09-.62.09ZM5.58,10.9l2.96-6.96,3.04,6.96h-6Z"/>
      <path class="cls-1" d="M26.93,5.87c-4.62,0-6.76,3.25-6.76,7.13,0,4.33,2.62,7.02,6.9,7.02,2.28,0,4.01-.65,5.24-1.83.03-.44.03-.9.2-1.68l-.34-.08c-.43.59-1.72,2.27-4.48,2.27-.81,0-2.65-.08-3.94-2.19-.76-1.29-.76-2.89-.76-3.67h10.11c.03-1.52.11-6.97-6.16-6.97ZM23.01,11.65c.25-2.81,1.44-4.66,3.89-4.66,3.38,0,3.38,3.73,3.38,4.66h-7.27Z"/>
      <path class="cls-1" d="M40.93,11.54c-.98-.25-2.65-.84-2.65-2.47,0-1.21.9-2.11,2.61-2.11.45,0,1.24.06,1.83.48.82.56.99,1.26,1.1,1.68h.37c.09-.95.29-1.63.56-2.36-.65-.33-1.78-.92-3.72-.92-3.89,0-4.88,2.59-4.88,4.18,0,2.47,2,3.34,3.21,3.73,2.95.95,3.92,1.26,3.92,2.86s-1.38,2.3-2.85,2.3c-.62,0-1.36-.12-2.05-.53-1.04-.62-1.32-1.38-1.53-1.86l-.34.08c-.05.36-.28,1.57-.65,2.25.31.22,1.88,1.17,4.17,1.17,3.92,0,5.41-2.38,5.41-4.51.02-2.79-2.01-3.32-4.51-3.97Z"/>
      <path class="cls-1" d="M55.46,5.84c-4.23,0-7.16,2.72-7.16,7.09,0,5.75,4.17,7.1,7.16,7.1,4.27,0,7.38-2.81,7.38-7.27,0-3.41-2.02-6.92-7.38-6.92ZM55.48,18.91c-2.6,0-4.31-2.16-4.31-6.06,0-.84,0-5.89,4.45-5.89,3.67,0,4.34,3.73,4.34,5.92,0,3.71-1.78,6.03-4.48,6.03Z"/>
      <path class="cls-1" d="M73.79,5.81c-3.12,0-4.34,1.96-4.78,2.69,0-.59,0-1.01.12-2.55-.39.08-.87.17-1.38.17-.54,0-.99-.08-1.38-.17.09,4.07.14,7.52.14,10.08,0,3.65-.08,7.32-.31,10.97.45-.12.81-.17,1.52-.17s1.04.05,1.46.17c-.17-2.58-.14-5.14-.14-9.54.46,1.16,1.94,2.6,4.59,2.6,3.68,0,6.42-2.78,6.42-7.21,0-5-3.43-7.05-6.25-7.05ZM73.12,18.64c-1.29,0-2.26-.51-2.98-1.38-.6-.69-1.16-1.63-1.16-4.1,0-2.78.59-3.79,1.16-4.49.65-.82,1.63-1.46,3.16-1.46,1.83,0,3.85,1.54,3.85,5.78,0,.9,0,5.64-4.03,5.64Z"/>
      <path class="cls-1" d="M30.94,2.36h-7.79v.88h7.79v-.88Z"/>
    </g>
  </g>
</svg>